<svg xmlns="http://www.w3.org/2000/svg" viewBox="0 0 57.883 50.464" role="img">
  <title>Visit Postojnsko</title>
  <path d="M50.024 39.768a4.008 4.008 0 1 1-4.008-4.008 4.008 4.008 0 0 1 4.008 4.008" transform="translate(7.859 6.689)" fill="#fff"/>
  <path d="M50.458 9.942c0 4.37-2.949 8.393-7.3 11.773.172-4.894.335-8.838.338-8.922l-5-2.581a66.4 66.4 0 0 1-11.673 7.106 14.4 14.4 0 0 0-8.96-6.855 10.5 10.5 0 0 0-4.576-.426c-.19.021-.377.051-.566.081A14.338 14.338 0 1 0 28.677 24.363c0-.342-.017-.679-.04-1.015a64.414 64.414 0 0 0 8.414-4.573c-.083 2.235-.176 4.86-.26 7.5-6.238 4.333-11.916 8.515-11.535 14.5l.015.163A8.7 8.7 0 0 0 28.883 47.1a8.474 8.474 0 0 0 4.9 1.51 9.931 9.931 0 0 0 2.318-.28c4.361-1.047 6.643-6 6.643-10.344 0-2.064.066-5.117.159-8.393C49.92 24.67 56.971 18.6 56.98 9.948ZM14.339 16.425a7.894 7.894 0 0 1 3.794.967 9.637 9.637 0 0 1 2.42 2.2c-2.569.6-4.827.6-6.4-.336-1.017-.607-1.9-1.511-1.593-2.164a1.417 1.417 0 0 1 .565-.572 7.986 7.986 0 0 1 1.211-.093M7.247 20.94a10.081 10.081 0 0 0 3.729 3.644c3.212 1.916 7.177 1.937 11.208.99A7.938 7.938 0 1 1 6.6 22.612a8.1 8.1 0 0 1 .649-1.671m29.289 17.04c0 1.946-.933 4.08-1.884 4.308a2.663 2.663 0 0 1-2.215-.281 2.488 2.488 0 0 1-.989-1.7c-.049-1.825 2.245-4.029 5.134-6.236-.028 1.487-.046 2.823-.046 3.908" transform="translate(0 1.859)" fill="#fff"/>
  <path d="M35.372 8.015a4.008 4.008 0 1 0-4.008-4.008 4.008 4.008 0 0 0 4.008 4.008" transform="translate(5.867 -.001)" fill="#fff"/>
</svg>
