<?xml version="1.0" encoding="UTF-8"?>
<svg id="Layer_1" xmlns="http://www.w3.org/2000/svg" version="1.1" viewBox="0 0 1205.35 1201.93">
  <!-- Generator: Adobe Illustrator 30.6.0, SVG Export Plug-In . SVG Version: 2.1.4 Build 109)  -->
  <defs>
    <style>
      path,
      polygon {
        fill: none;
        stroke: #fff;
        stroke-width: 1.15px;
        stroke-linecap: round;
        stroke-linejoin: round;
        vector-effect: non-scaling-stroke;
      }
    </style>
  </defs>
  <path d="M848.34,1152.84c-111.34,47.57-239.2,61.5-358.04,37.68-46.32-9.28-90.86-23.52-133.79-43.21-58.67-26.92-112.62-62.19-160.81-105.16-36.49-32.53-68.58-69.45-96.12-109.9C13.28,805.47-18.21,649.25,10.14,498.52c27.16-144.42,101.14-265.78,213.58-359.28,55.1-45.82,117.15-81.64,185.02-105.05C479.61,9.76,554.46-2.36,629.69.38c152.92,5.57,298.17,70.59,404.03,180.79,68.74,71.56,119.67,158.11,147.25,253.64,20.87,72.26,28.78,147.82,22.03,222.66-7.65,84.74-30.43,159.87-70.56,234.67-23.14,43.14-51.57,83.08-84.54,119.27-55.64,61.07-123.59,108.97-199.57,141.43ZM565.57,1193.62c76.8,5.18,153.38-4.4,226.17-27.4,173.19-54.72,305.57-184.35,369.15-353.81,42.4-113.01,48.34-233.97,19.85-351.34-22.24-91.61-66.61-175.79-127.42-247.39-83.48-98.31-196.56-166.2-322.72-193.54-65.38-14.17-132.31-16.96-198.85-7.91-113.53,15.45-215.55,59.32-303.45,132.62-68.86,57.42-125.96,128.12-164.28,209.55-26.43,56.17-43.84,116.23-52.04,177.77-7.3,54.77-6.19,109.36,2.05,163.9,8.36,55.39,25.36,108.74,49.59,159.26,91.33,190.44,290.61,324.02,501.95,338.28Z"/>
  <path d="M532.13,1164.05c-41.47-5.85-81.02-15.41-119.76-29.68-87.11-32.09-165.82-83.77-229.16-151.68-39.37-42.21-72.26-90.11-96.41-142.52-25.01-54.27-41.73-111.46-47.82-170.98-5.04-49.26-4.7-98.02,2.99-146.89,25.18-159.84,108.51-288.58,238.61-383.29,68.57-49.92,147.76-82.53,231.49-96.39,34.1-5.65,67.97-8.82,102.74-8.42,109.97,1.28,217.55,35.45,307.99,97.83,133.71,92.21,221.72,235.64,244.44,396.6,5.32,37.72,7.04,75.29,4.24,113.64-15.28,209.4-142.89,398.14-337.17,480.52-58.18,24.67-119.47,39.28-182.49,44.27-40.29,3.19-79,2.72-119.68-3.01ZM579.79,1161.59c67.73,3.2,135.66-5.99,200.21-26.12,89.74-27.99,170.76-78.52,234.57-147.3,79.63-85.85,130.13-193.88,146.31-309.88,7.01-50.26,6.65-101.38-.72-151.43-17.47-118.68-70.65-228.12-153.58-314.74-31.07-32.45-66.34-61.09-104.3-85.47-46.41-29.8-96.71-51.48-149.76-66.23-68.21-18.97-138.56-23.78-208.92-15.47-78.38,9.26-154,33.64-221.49,74.65-36.31,22.07-69.74,48.21-100.88,77.21-52.95,49.32-96.1,108.43-126.65,174.09-20.99,45.1-35.02,92.36-43.97,141.11-6.46,35.15-8.78,69.49-8.23,105.25,1.09,70.76,15.91,139.52,43.65,204.6,83.07,194.95,282.71,329.76,493.76,339.74Z"/>
  <path d="M780.19,845.23c-32.59,24.32-69.47,40.58-108.7,49.78-71.12,16.68-145.7,6.06-209.84-28.85-60.25-32.79-107.48-86.37-132.9-149.93-25.74-64.35-28.23-133.98-9.27-199.31,43.22-148.96,193.63-240.44,345.99-208.62,50.84,10.62,98.19,35.35,137.2,70.96,47.3,43.18,78.92,100.24,92.09,162.98,9,42.85,8.25,86.61-1.64,129.16-16.15,69.52-55.28,130.8-112.92,173.83ZM770.4,844.23c16.58-11.47,31.03-24.16,44.58-38.85,49.29-53.44,77.8-123.03,79.32-196.23,1.75-83.99-32.98-166.15-94.14-223.2-58.88-54.93-137.22-82.76-217.32-76.53-99.65,7.75-189,66.18-235.1,155.01-21.06,40.58-32.87,85.59-34.21,131.72-1.1,38,5.66,75.07,18.65,110.45,23.59,64.29,69.14,117.87,128.32,151.44,97.26,55.17,217.64,50.03,309.89-13.81Z"/>
  <path d="M675.89,1122.06c-.01,2.83-2.66,4.43-5.2,4.42l-77.94-.27c-14.05-.05-27.29-1.88-39.97-6.89-27.84-10.54-43.02-38.05-37.2-67.28,3.55-17.83,16.17-31.66,33.64-37.6l-39.15-59.6c-.78-1.18-1.62-3.78-1.35-4.93s2.08-2.53,3.54-3.34h72.93s20.45,38.38,20.45,38.38l.32-33.93c.02-1.93,1.99-4.02,4.05-4.46l63.47.02c1.66,0,3.23,2.73,3.22,4.76l-.79,170.71ZM669.63,1120l.58-167.17-57.92.06-.12,44.32c-.65.99-2.19,2.75-3.1,2.65s-2.33-.81-3.6-1.5l-24.04-45.52-65.12.07,39.92,60.72c.83,2,.07,4.36-1.74,5.23-20.03,6.83-32.05,19.97-33.62,41.29-1.71,23.22,11.18,43.42,32.56,52.5,11.6,4.59,23.71,7.1,36.6,7.13l79.62.2Z"/>
  <path d="M466.76,931.48c1.23.97,2.45,3.15,2.44,4.19,0,1.24-1.36,3.74-2.72,4.54l-112.54,66.14-43.85,26.19c-3.57,2.13-5.94,1.79-9.13-.72l-47.51-37.34c-2.37-1.87-3.91-3.87-2.72-7.29l60.28-173.49c.44-1.28,1.78-2.82,2.66-3.13,1.06-.37,3.89.07,4.79.78l46.2,36.91c1.87.63,4.09,3.97,3.39,5.72l-8.32,21.12,34.98,27.84,15.77-11.21c1.36-.97,4.67-.65,6.27.39l50.02,39.36ZM413.19,897.39l-19,13.22-41.73-33.41,9.02-23.53-45.25-35.94-59.33,171.18,49.21,38.79,71.5-42.66,84.29-49.41-48.71-38.25Z"/>
  <path d="M534.38,261.76c-1.79-.02-4.15-.61-4.47-1.58s-.13-3.08.13-4.54l36.73-45.27c-22.4-.27-40.23-6.69-54.74-23.55-18.2-27.37-15.57-63.2,7.22-87.16,28.06-29.5,76.92-34.76,113.57-20.82,27.18,10.35,44.43,34.64,45.73,63.47.82,18.32-4.58,35.33-13.31,51.34l-16.01,23.13-37.22,45.99-77.63-1ZM538.28,255.37l70.79,1.05,25.04-30.8,22.42-29.64c10.34-16.37,16.36-34.48,15.55-53.92-1.11-26.71-17.54-48.64-42.86-57.64-27.25-9.68-58.08-8.55-84.16,3.89-30.16,14.39-45.87,47.06-35.6,79.02,8.87,27.61,34.14,37.62,62.29,37.05,1.06-.02,3.66.74,3.63,1.73l-.11,3.64c-12.92,14.94-25.21,29.42-37,45.62Z"/>
  <path d="M116.38,810.11c-2.15.6-4.53-.35-5.56-1.23l-18.37-64.54c-3.66-16.2-6.01-31.5-5.11-48.15,3.03-55.8,48.52-88.84,102.2-85.63,20.26,1.21,37.97,10.39,51.37,25.51,12.8,14.44,21.6,31.28,26.82,50.09l19.75,71.22c.68,2.47-.38,5.05-3,5.78l-168.1,46.96ZM115.93,803.66l165.03-45.96-20.47-73.22c-4.67-16.7-12.84-31.18-24.01-43.96-13.13-15.03-30.83-23.32-50.77-23.68-14.7-.26-28.34,2.05-41.93,7.41-32.5,12.81-50.3,43.39-50.36,77.96-.03,15.39,2.18,30.05,6.38,44.82l16.13,56.63Z"/>
  <path d="M887.63,329.59l-18.55,24.74c-1.02,1.35-5.23.78-6.44-.05l-47.2-31.91c-1.11-1.59-1.31-4.9-.14-6.42l18.71-24.36-63.25-43.42c-1.1-1.71-1.44-4.62-.45-6.17l17.52-27.71c38.77-15.84,77.25-29.12,116.92-41.91,2.32-.75,6.67-2.34,8.58-.99l58.63,41.55c1.74,1.23,2.29,4.75.97,6.52l-51.33,69.27,12.88,8.87c1.86,1.28,2.18,4.12.78,6.03l-25.38,34.78c-.86,1.18-2.69,2.72-3.85,2.82s-3.59-.96-4.56-1.64l-13.85-10ZM886.45,321.43l18.58,12.83,24.24-32.76-13.22-8.97c-.91-.62-1.61-2.59-1.63-4.39l52.7-71.17-56.65-40.03c-40.12,13.21-79.39,26.79-118.72,42.15l-15.49,25.29,66.33,45.64-21.29,28.67,44.17,30.16,20.98-27.42Z"/>
  <path d="M283.62,366.51c-27.76-8.41-49.73-29.16-60.92-55.08-16.9-39.17-.26-83.56,32.12-110.11,49.11-40.27,121.21-30.58,151.54,23.15,17.8,31.53,15.23,70.09-6.31,99.12-26.07,35.14-73.15,56.04-116.44,42.92ZM397.13,316.81c25.05-36.7,17.33-86.33-17.24-113.91-18.83-15.02-41.91-21.76-66.31-19.45-38.05,3.61-71.27,28.81-85.22,64.2-11.9,30.19-5.61,63.03,16.38,86.55,8.04,8.6,17.05,15.84,27.72,21.13,43.76,21.65,97.69,1.02,124.67-38.52Z"/>
  <path d="M261.1,528.94c-.97,3.07-2.97,4.8-6.18,3.82l-161.46-49.1c-3.71-1.13-4.17-3.74-3.18-6.9l17.08-54.77c.81-2.6,3.21-4.57,6.29-3.6l161.04,50.71c2.67.84,4.35,2.78,3.47,5.57l-17.05,54.27ZM271.72,474.58l-46.26-14.24-112.6-35.47-16.39,53.15,158.95,48.32,16.31-51.75Z"/>
  <path class="st0" d="M669.63,1120l-79.62-.2c-12.89-.03-25-2.54-36.6-7.13-21.38-9.09-34.27-29.29-32.56-52.5,1.57-21.33,13.59-34.46,33.62-41.29,1.81-.87,2.57-3.23,1.74-5.23l-39.92-60.72,65.12-.07,24.04,45.52c1.28.69,2.69,1.41,3.6,1.5s2.45-1.67,3.1-2.65l.12-44.32,57.92-.06-.58,167.17ZM611.83,1047.32c.03-4.04-16.31-4.28-23.93.08-6.38,3.64-8.54,10.75-7,17.84,2.72,12.52,16.64,14.56,30.73,12.65l.21-30.57Z"/>
  <path class="st0" d="M413.19,897.39l48.71,38.25-84.29,49.41-71.5,42.66-49.21-38.79,59.33-171.18,45.25,35.94-9.02,23.53,41.73,33.41,19-13.22ZM324.91,960.01l32.19-23.48c1.04-.76,2.33-1.99,2.54-2.9s-.93-3.03-1.76-3.71l-15.94-13c-.75-.61-2.86-2.17-3.54-1.55l-2.96,2.67-16.04,37.07c-.54,1.57-.22,3.97.83,4.91.8.71,3.58.8,4.67,0Z"/>
  <path d="M822.24,768.81c-72.18,98.42-202.17,134.74-316.21,91.23-82.31-31.4-144.35-100.83-165.98-186.4-17.38-68.77-8.62-142.38,25.11-205,28.93-53.71,75.09-95.72,131.26-119.83,58.4-25.07,124.75-29.26,185.69-11.12,85.55,25.46,152.72,92.19,180.53,176.61,28.39,86.18,13.24,181.35-40.41,254.51ZM798.66,787.25c95.47-104.41,95.36-266.82-.68-370.02-58.18-62.52-141.66-92.66-226.41-82.1-68.81,8.57-131.85,43.46-175.17,97.82-39.93,50.11-59.63,113.23-58.48,176.81,1.99,109.22,69.3,206.52,171.87,244.75,30.32,11.3,62.83,17.55,95.87,17.29,73.29-.57,143.69-30.64,193-84.56Z"/>
  <path d="M611.83,1047.32l-.21,30.57c-14.09,1.91-28.01-.13-30.73-12.65-1.54-7.09.63-14.2,7-17.84,7.62-4.36,23.95-4.12,23.93-.08ZM605.53,1072.45l.09-21.56-13.14,1.08c-4.87,1.38-6.46,6.34-5.92,10.63.48,3.82,3.31,8.28,8.03,8.75l10.95,1.11Z"/>
  <path d="M324.91,960.01c-1.09.8-3.87.71-4.67,0-1.05-.94-1.38-3.34-.83-4.91l16.04-37.07,2.96-2.67c.68-.61,2.79.94,3.54,1.55l15.94,13c.83.68,1.98,2.79,1.76,3.71s-1.51,2.15-2.54,2.9l-32.19,23.48ZM351.86,932.87l-11.91-9.46-11.54,26.39,23.44-16.93Z"/>
  <path d="M594.03,168.01c-13.23,2.45-24.83-5.96-26.21-18.35-1.4-12.55,7.59-23.65,21.02-24.33,11.78-.6,22.04,7.43,23.28,19.02,1.17,10.96-5.76,21.38-18.09,23.67ZM591.21,162.15c9.3-.75,15.63-8.52,14.75-16.46-.94-8.43-7.58-14.32-16.23-14.08-9.49.26-16.09,6.86-15.79,15.94.28,8.45,7.44,15.38,17.27,14.59Z"/>
  <path d="M150.32,733.86c-1.14-.39-3.29-2.07-3.49-3.09l-3.39-17.49c-2.49-12.85,4-24.73,15.13-31.26,8.85-5.19,19.28-7.34,29.51-6.22,18.99,2.08,25.17,19.71,29.39,37.53.18,1.46-3.31,3.31-4.89,3.74l-62.26,16.79ZM210.42,711.03l-4.76-14.7c-7.79-16.54-24.83-17.67-41.26-10.41-10.02,4.44-16.95,14.2-14.8,25.35l2.98,15.49,57.84-15.73Z"/>
  <path d="M868.4,258.37l-20.44-13.25c-.92-.6-1.97-2.42-1.99-3.29s1.56-2.88,2.61-3.2l34.29-10.37c1.23-.37,3.73.06,4.48.83s.61,3.72-.19,4.76l-18.75,24.53ZM867.12,250.53l10.83-14.43-22.37,6.71,11.53,7.72Z"/>
  <path d="M342.97,298.08c-12.74,13.06-33.93,13.4-47.75,2.68-9.65-7.48-14.69-19.51-13.48-31.54,1.43-14.19,12.29-24.71,25.49-28.42,11.91-3.34,23.7-1.2,32.82,7.07,14.26,12.93,17.26,35.52,2.92,50.22ZM335.43,296.38c11.17-8.18,13.45-22.76,7.63-34.49-6.03-12.15-18.11-18.21-31.41-15.73-11.22,2.09-20.68,9.49-23.18,20.93-2.63,12.01,3.23,24.16,12.75,30.29,10.48,6.75,23.7,6.71,34.21-.99Z"/>
  <path class="st0" d="M591.21,162.15c-9.83.79-16.98-6.14-17.27-14.59-.31-9.09,6.3-15.68,15.79-15.94,8.65-.24,15.29,5.64,16.23,14.08.88,7.94-5.45,15.71-14.75,16.46Z"/>
  <polygon class="st0" points="867.12 250.53 855.58 242.82 877.95 236.11 867.12 250.53"/>
  <path class="st0" d="M335.43,296.38c-10.51,7.7-23.73,7.74-34.21.99-9.52-6.13-15.37-18.28-12.75-30.29s11.95-18.84,23.18-20.93c13.3-2.47,25.38,3.58,31.41,15.73,5.82,11.74,3.54,26.31-7.63,34.49Z"/>
  <path d="M465.05,728.76c0-2.69,1.19-4.93,3.56-4.93l41.78-.02.53-203.43.19-35.12-45.35.05-.16-79.08c0-2.24,2.03-3.65,4.23-3.65h153.71c2.23-.01,4.2,1.58,4.24,3.39l.35,14.4c20.6-30.76,57.14-44.48,91.92-33.5,33.06,10.44,56.47,41.4,56.14,77.15-.82,36.28-26.16,66.83-61.45,75.17-34.09,8.06-68.07-5.57-87.29-35.92l-.79,220.51,47.18-.06c1.06.7,2.36,2.31,2.81,3.56l-.07,79.85c0,1.24-2.48,3.21-4.05,3.21h-203.69c-2.46,0-3.78-2.16-3.78-4.18l-.02-77.4ZM471.55,730.42l.05,73.52h198.55s.11-73.81.11-73.81l-49.97-.34.77-234.87c0-1.85,1.12-4.46,2.33-4.87s3.76.45,5.1,1.38c15.63,35.34,55.66,52.34,92.07,39.46,31.27-10.68,51.25-40.56,48.93-73.72-1.62-23.21-14.92-43.78-32.65-55.36-37.35-24.39-85.11-11.98-107.54,29.02-.63,1.15-2.91,2.47-4.08,2.56s-3.51-1.88-3.53-3.15l-.29-21.37-149.46.03.02,70.03,45.42.43-.6,250.57-45.23.47Z"/>
</svg>
