<svg xmlns="http://www.w3.org/2000/svg" viewBox="0 0 248 48" role="img" aria-labelledby="title">
  <title id="title">Radio 94</title>
  <g fill="none" stroke="#fff" stroke-width="2">
    <circle cx="24" cy="24" r="21"/>
    <circle cx="24" cy="24" r="16"/>
  </g>
  <path fill="#fff" d="M13 14h7.2c4.6 0 7.3 2.2 7.3 6 0 2.4-1.2 4.1-3.3 5l4.6 9H23l-3.7-7.9h-1V34H13V14Zm5.3 4.1v4h1.5c1.6 0 2.4-.7 2.4-2s-.8-2-2.4-2h-1.5Zm13.1-4.1h4.9l-5.8 12h4.1v-4.2h4.7V26h2.2v4.2h-2.2V34h-4.7v-3.8h-9.1V27L31.4 14Z"/>
  <text x="57" y="33.5" fill="#fff" font-family="Arial, Helvetica, sans-serif" font-size="28" font-weight="700" letter-spacing="1.5">RADIO 94</text>
</svg>
