<svg xmlns="http://www.w3.org/2000/svg" version="1" width="2760" height="1590.667" viewBox="0 0 2070 1193"><path d="M1008 102.6C948.9 158.9 898.3 207.3 895.5 210l-5 5H1117V107.5c0-59.1-.3-107.5-.7-107.4-.5 0-49.2 46.1-108.3 102.5z" fill="#ffc627"/><path d="M411.5 272.1c-84.8 2-149.7 11-201.5 28C134.3 325 82.4 366.8 53 426.5c-11.9 24.2-18.7 46.3-23.1 74.5-2.6 16.8-3.7 60.5-2 78.3 4.5 46 18.2 83.7 42 115.7 8.1 10.9 30 32.6 41.8 41.3 34.1 25.1 71.9 42.1 134.1 60.1 10.6 3.1 60.5 15.9 111 28.6 50.4 12.6 97.4 24.7 104.4 26.9 46.6 14.6 67.2 29.5 76 55.1 2 5.6 2.3 8.5 2.2 20 0 11.8-.4 14.5-2.7 21.6-11.4 34.5-51.7 55.8-113.4 60l-10.3.7v184l25.3-.6c75-1.8 143.9-17.7 200.6-46.2 82.5-41.4 133.1-106.8 147.6-191 6.4-37.2 5.6-78.8-2-112.9-19.4-85.7-81.3-144-193.5-182.1-39.3-13.3-66.1-20.2-156.5-40-57.8-12.7-85.3-20.1-108.4-29.1-45.3-17.7-64.6-39.3-62.8-70.4 1.8-30.1 20.2-50.7 56.4-63.3 31.1-10.9 54.3-12.6 167.6-12.7H560V271l-59.2.2c-32.6.1-72.8.5-89.3.9zM654 358v87h238v264.7c0 263.5.3 290.4 3.5 320.3 7.7 71.8 34.1 114.4 86.5 139.4 26.1 12.4 57.3 19.6 98 22.7 16.2 1.2 76.8.7 90.3-.7l5.7-.6v-174.5l-10.4-2c-24.5-4.8-37-16.7-43.1-40.7-4.9-19.4-4.8-14.2-5-279.4l-.1-249.2H1374V271H654zM1525.9 271.7l-60.6.3-.6 51.8c-.4 28.4-.7 67.1-.7 85.9v34.2l92.3.4c98.3.4 101.2.6 127.7 5.8 60.3 11.8 93.5 40.3 104.7 89.9 1.5 6.9 1.7 29.6 2.3 276 .5 196.1 1 271.3 1.8 279 3 26.7 6.5 42.4 13.4 60l3.4 8.5 130.2.3c71.6.1 130.2 0 130.2-.2s-3.2-6.9-7-14.8c-11.8-24.5-17.9-46.4-21.6-77.8-1.6-13.2-1.8-36.8-2.4-261-.7-250.9-.7-251.9-4.6-283-9.9-80.4-42.8-139.4-102.8-184.5-55.5-41.6-132.6-63.3-246.6-69.5-23.2-1.2-84.6-1.7-159.1-1.3z" fill="#231f20"/><path d="M1730.5 608c-12.6 2.6-62.1 11.8-110 20.4-99.5 18-123.6 22.7-149.5 29.2-100.7 25.2-164 69.2-197 136.9-19.3 39.5-27.7 85.7-25 136.7 2.9 54.2 17.5 101 43.8 140.3 43.7 65.3 114 106.3 204.2 119.1 15.7 2.2 67.2 3 86.9 1.4 38-3.1 74-10.6 103.8-21.5 20.7-7.6 53.6-25.7 66-36.4l2.3-1.9-1.5-27.4c-.8-15-1.9-35.1-2.5-44.7-1.7-29.8-.9-60.8 2.5-95.1.7-7.4 1.2-13.6 1-13.8-.1-.1-4.4 2.6-9.6 6.1-30.3 20.6-63.2 33.4-101.9 39.4-16.1 2.4-50.7 2.5-63.9 0-48.8-9.3-78.3-37.6-83.2-79.8-2.1-18.4 1.5-37.9 9.6-52.4 12.3-21.9 37.2-38.9 76.2-51.8 17.3-5.8 27.1-8.1 115.8-26.7 23.7-5 46.2-9.8 50-10.8l7-1.8.3-85.2c.2-67.9 0-85.2-1-85.1-.7.1-11.6 2.3-24.3 4.9zM226 863.6c-1.9.2-19 .8-38 1.4-19 .6-66.4 2.2-105.5 3.5-39 1.4-73.6 2.5-76.7 2.5H0v5.2c0 6.9 2.5 28.9 5.1 44.8 17 103.7 66.2 174.8 151.4 219.1 33.9 17.6 75.5 31.6 121 40.7 26.4 5.3 61.4 10.2 84.3 11.8l9.2.7v-186.9l-17.2-4.3c-37.6-9.3-62.5-22.1-80.5-41.5-17-18.2-26.7-41-34.4-81.1l-3.2-16.5-3.1.2c-1.7.1-4.7.3-6.6.4z" fill="#231f20"/></svg>