<?xml version="1.0" encoding="UTF-8"?>
<svg xmlns="http://www.w3.org/2000/svg" version="1.1" viewBox="0 0 1026.02 614.45">
  <!-- Generator: Adobe Illustrator 30.6.0, SVG Export Plug-In . SVG Version: 2.1.4 Build 109)  -->
  <defs>
    <style>
      .st0 {
        fill: #fff;
      }
    </style>
  </defs>
  <g id="Layer_1" shape-rendering="geometricPrecision">
    <g>
      <path class="st0" d="M498.2,203.93c-8.08,101.49-51.71,212.38-138.83,267.7-63.64,40.41-150.63,38.13-202.96-18.21l-16.04,160.77-140.37.25L72.05,102.87c.06-9.6-2.65-22.19-12.05-22.76-13.49-.81-25.74,2.98-39.41,6.5l-.18-50.4C62.35,10.78,163.43-15.29,189.41,11.26c7.12,7.28,10.58,20.8,9.24,31.94-7.18,59.79-22.42,115.32-34.12,174.71,16.13-46.19,31.56-91.43,58.98-132.69C268.67,17.92,321.78-10.7,402.91,4.28c92.27,17.04,102.11,113.99,95.29,199.65ZM262.83,409.94c19.75-15.53,34.54-34.43,46.08-56.9,37.05-72.16,51.68-155.47,41.83-235.82-1.49-12.13-10.62-23.93-18.31-27.48-9.46-4.36-23.64-1.99-32.25,4.4-61.71,45.72-105.81,157.83-118.08,233.61l-10.46,64.56c19.8,32.66,59.94,42.21,91.2,17.63Z"/>
      <path class="st0" d="M1022.82,473.4c-55.35,25.25-170.02,41.81-190.31-10.65-7.53-19.47-7.52-40.95-3.76-62.37l46.81-266.94c2.09-11.92,1.41-27.76-3.42-37.04-6.83-13.15-24.65-10.53-35.57-4.05-68.68,40.71-119.96,166.46-132.23,248.05l-22.8,147.14-140.19.03,59.33-377.27c.64-9.02,1.16-24.82-6.9-28.17-13.97-5.81-28.63.7-44.01,4.57l-.21-50.46c54.54-31.23,185.58-64.24,178.43,4.31-5.91,56.62-21.71,109.64-33.73,166.38,17.53-42.33,32.81-83.69,59.44-121.31,48.27-71.94,117.7-103.1,201.63-75.84,57.69,18.74,68.94,72.39,58.71,130.86l-44.94,256.81c-2.09,11.94,5.11,26.04,16.32,27.24,13.23,1.42,24.97.63,40.6-.67l-3.19,49.37Z"/>
    </g>
  </g>
</svg>