<?xml version="1.0" encoding="UTF-8"?>
<svg id="Layer_1" xmlns="http://www.w3.org/2000/svg" version="1.1" viewBox="0 0 1221.48 1222.39">
  <path d="M866.64,1164.93c-153.65,73.09-330.94,76.44-486.98,10.18-128.7-54.65-241.72-153.5-308.69-276.95C10.8,787.22-11.76,658.77,5.78,533.91c13.02-92.64,46.5-180.16,98.06-257.93,38.15-57.54,84.8-108.32,139.41-150.63,37.39-28.97,77.79-53.61,121.14-72.82,158.25-70.11,338.33-70.26,496.19.93,54.12,24.41,103.35,57.2,147.86,96.26,50.14,44,92.41,96.23,126.38,153.61,37.85,63.93,63.94,133.66,77.12,206.9,22.82,126.84,4.5,259.06-53.73,374.16-20,39.53-45.2,76.45-73.4,110.66-59.16,71.78-133.83,129.76-218.18,169.88ZM577.99,1201.22c86.05,5.13,171.76-8.98,251.37-41.77,134.42-55.36,245.16-156.2,310.97-285.94,16.18-31.9,28.2-64.72,38.02-99.12,18.49-64.72,25.58-131.92,20.45-199.37-7.1-93.4-36.47-183.98-84.45-264.12-37.32-62.33-85.26-117.06-141.6-162.32C856.16,54.91,707.35,10.35,558.57,24.59c-167.73,16.06-315.29,100.65-416.07,235.06-42.5,56.68-74.91,119.67-95.31,187.6-14.51,48.3-23.56,97.26-25.56,147.81-4.58,116.06,27.24,234.25,90.86,331.62,43.92,67.21,100.67,124.68,166.81,170.02,89.46,61.33,190.1,98.04,298.69,104.51Z"/>
  <path d="M779.33,1154.75c-127.36,41.24-264.26,33.36-386.34-19.73-82.25-35.77-155.6-89.62-214.38-157.51-41.13-47.5-74.06-101.66-96.78-160.21-33.64-86.72-45.06-179.87-32.67-272.24,10.01-74.62,34.5-146.63,71.99-211.73C226.07,151.13,418.53,39.07,630.23,45.11c112.95,3.22,222.33,42.21,313.02,109.75,90.88,67.68,159.88,160.78,198.9,267,45,122.46,46.82,256.13,3.87,379.36-13.44,38.56-30.96,75.32-52.89,110.09-72.84,115.53-183.24,201.16-313.82,243.44ZM825.41,1123.71c109.67-47.27,202.07-127.44,263.04-230.24,61.64-103.92,86.71-228.48,70.49-348.31-17.7-130.74-80.35-251.5-177.07-340.99-85.62-79.22-193.39-130.14-309.91-143.11-65.45-7.29-131.04-1.84-194.78,14.36-77.81,19.78-149.93,57.12-211.97,107.84-39.74,32.49-74.53,70.16-104,112.08-60.03,85.38-95.75,185.23-102.51,289.57-7.69,118.78,26.03,240.62,94.33,338.19,78.47,112.11,195.05,193.71,327.54,228.44,116.33,30.5,234.82,19.59,344.84-27.83Z"/>
  <path d="M678.84,888.48c-35.96,8.32-71.49,10.2-107.43,4.27-27.06-4.46-52.75-11.6-77.65-23.52-95.88-45.89-161.78-138.99-167.82-246.03-5.51-97.75,39.65-192.25,118.7-249.56,61.33-44.47,138.67-63.47,213.75-51.8,161.84,25.14,272.53,185.85,235.75,345.26-14.48,62.76-48.06,118.49-96.66,160.53-34.22,29.59-73.85,50.49-118.64,60.86ZM731.7,856.95c86.12-43.02,144.63-126.77,155.78-222.38,7.64-65.45-10.54-131.03-47.79-184.99-52.84-76.55-141.34-122.25-234.76-118.62-71.7,2.78-139.81,32.83-189.49,84.68-38.66,40.34-64.42,91.67-73.97,146.88-10.41,60.18.57,121.78,29.94,175.35,28.33,51.68,72.9,93.92,126.02,119.62,73.36,35.5,161.81,35.66,234.27-.53Z"/>
  <path d="M402.6,329.01c-25.94,35.99-74.24,56.32-115.59,37.91-29.55-13.16-49.43-42.28-50.53-74.76-1.56-46.07,37.17-85.16,80.59-93.79,18.44-3.66,37.04-2.1,53.72,5.79,47.29,22.35,62.44,82.35,31.81,124.85ZM313.65,316.78c11.8,6.25,24.85,4.88,35.17-2.18,9.58-6.55,15.16-18.11,13.96-30.53-1.03-10.75-6.29-20.31-14.66-27.14-9.86-8.05-22.94-9.73-34.8-4.42-10.25,4.59-18.69,14.4-19.8,27.05-1.32,15.09,6.34,29.91,20.12,37.21Z"/>
  <path d="M128.56,801.42l-18.26-64.65c-3.99-14.14-5.55-28.06-4.37-42.65,4.79-45.58,45.33-71.8,89.05-71.02,24.75.44,46.05,13.43,58.89,34.2,6.06,10.58,10.56,21.28,13.85,33.22l18.22,66.12-157.38,44.78ZM223.89,714.45l-6.52-19.67c-3.77-8.15-10.62-14.53-19.61-16.23-11.42-2.15-23.64,1.16-31.9,9.41-6.17,6.16-9.67,15.64-7.8,24.16l4.27,19.37,61.57-17.04Z"/>
  <path d="M678.34,1122.32h-75.26c-23.57,0-48.41-7-61.47-26.88-7.87-13.85-10.24-29.94-5.65-45.35s16.81-25.38,32.79-28.9l-43.19-64.61,61.59-.25,33.03,56.67.6-56.14,57.55.06v165.39ZM620.75,1080.32l-.05-32.55-16.54.35c-9.06.19-14.5,8.26-13.68,17.11,1.32,14.26,15.7,16.77,30.26,15.08Z"/>
  <path d="M415.85,896.13l50.06,37.48-151.02,95.49-53.78-42.13,56.92-164.61,49.24,37.13-9.24,22.35,38.53,29.3,19.28-15.02ZM365.22,935.54l-23.5-18-21.41,50.7,44.91-32.69Z"/>
  <path d="M544.44,266.71l42.1-48.16c-28.39-.6-59.85-9.09-67.69-38.36-8.89-33.22,6.03-65.96,39.29-78.14,40.99-15.01,100.42-6.74,115.25,36.63,7.09,20.74,3.68,42.38-6.21,61.5-6.89,11.91-14.21,22.61-22.77,33.35l-26.55,33.27-73.42-.09ZM597.54,184.85c12.37-.18,20.76-8.98,21.66-20.71,1.09-14.24-9.95-25.39-24.18-24.16-12.67,1.09-20.34,11.22-19.62,23.52s8.95,21.56,22.14,21.36Z"/>
  <path d="M892.57,332.5l-19.81,27.55-45.56-32.15,21.37-27.53-66.96-46.61,25.74-28.82,106.51-34.18,55.12,38.91-52.33,70.25,16.27,11.59-23.91,33.03-16.44-12.02ZM873.16,269.34l23.67-30.73-47.43,14.08,23.77,16.65Z"/>
  <polygon points="270.1 531.94 110.86 481.62 128.68 427.53 287.59 478.96 270.1 531.94"/>
  <path d="M483.07,800.68l-.15-72.5,47.06-.04v-246.07s-47.04-.02-47.04-.02v-70.15s146.24-.01,146.24-.01l.1,31.01,3.93.18c.75.04,10.16-32.27,46.36-42.71,22.93-6.61,45.73-1.46,63.42,12.38,34.33,26.85,36.71,76.85,5.35,106.96-15.79,15.16-37.93,22.39-59.87,18.97-26.8-4.19-47.95-22.43-55.69-48.13l-3.56.23-.02,237.37h49.21s.04,72.53.04,72.53h-195.37Z"/>
</svg>
