<?xml version="1.0" encoding="UTF-8"?>
<svg id="Layer_1" xmlns="http://www.w3.org/2000/svg" version="1.1" viewBox="0 0 57 42">
  <path fill="#fff" d="M51.2,3.9h-12.6l-15.5,24h-9.3l.8-.5,8.3-6.3c2.8-2.5,4.6-5.4,4.6-9.4C27.5,3.9,21.4,0,14.2,0S1,4.9,0,12.6l9.1,1.8c.2-2.8,1.1-6.3,4.5-6.3s3.5,1.7,3.5,3.8c0,3.2-2.6,5.4-4.8,7.3L0,28.5v8.3h39.9v5.2h11.3v-5.2h5.8v-8.9h-5.8V3.9ZM39.9,27.9h-7.8l7.8-12.4v12.4ZM45,33.2h0c0,.7,0,1.3-.7,1.7-.5.4-1.2.5-1.8.5s-1.3,0-1.7-.4c-.6-.4-.8-1-.8-1.7v-4h1.9v4.5c0,.2.4.3.7.3s.5,0,.6-.2c.2-.2.2-.5.2-.8v-3.7h1.5v3.9h0ZM51.3,31.2c0,.8-.4,1.3-1.1,1.6l1.1,2.6h-2.1l-.9-2.3h-.6v2.3h-1.9v-6.1h3.1c.5,0,1.1,0,1.6.4.5.3.7.9.7,1.5h.1Z"/>
  <path fill="#fff" d="M49.1,30.7h-1.2v1.2h.7c.4,0,.9,0,.9-.6s0-.4-.3-.5h0c0-.1-.1-.1-.1-.1Z"/>
</svg>
